<mxfile host="Electron" modified="2023-08-01T14:24:31.762Z" agent="Mozilla/5.0 (Windows NT 10.0; Win64; x64) AppleWebKit/537.36 (KHTML, like Gecko) draw.io/21.6.5 Chrome/114.0.5735.243 Electron/25.3.1 Safari/537.36" etag="uZfJpLYnUKXs6cYV5utt" version="21.6.5" type="device">
  <diagram name="Page-1" id="OoO9SuHpJbz0aWm00PR_">
    <mxGraphModel dx="880" dy="511" grid="1" gridSize="10" guides="1" tooltips="1" connect="1" arrows="1" fold="1" page="1" pageScale="1" pageWidth="1169" pageHeight="827" math="0" shadow="0">
      <root>
        <mxCell id="0" />
        <mxCell id="1" parent="0" />
        <mxCell id="1lxfNGaXf8-d4kUKe-V4-5" style="edgeStyle=orthogonalEdgeStyle;rounded=0;orthogonalLoop=1;jettySize=auto;html=1;endArrow=block;endFill=0;endSize=12;" edge="1" parent="1" source="1lxfNGaXf8-d4kUKe-V4-3" target="1lxfNGaXf8-d4kUKe-V4-1">
          <mxGeometry relative="1" as="geometry" />
        </mxCell>
        <mxCell id="1lxfNGaXf8-d4kUKe-V4-1" value="&lt;b&gt;ClassA&lt;/b&gt;" style="swimlane;fontStyle=0;align=center;verticalAlign=top;childLayout=stackLayout;horizontal=1;startSize=30;horizontalStack=0;resizeParent=1;resizeParentMax=0;resizeLast=0;collapsible=0;marginBottom=0;html=1;whiteSpace=wrap;" vertex="1" parent="1">
          <mxGeometry width="170" height="140" as="geometry" />
        </mxCell>
        <mxCell id="1lxfNGaXf8-d4kUKe-V4-2" value="name: String&lt;br&gt;shape: Rectangle&lt;br&gt;+size: Integer[0..1]&lt;br&gt;/area: Integer {readOnly}&lt;br&gt;height: Integer = 5&lt;br&gt;width: Integer" style="text;html=1;strokeColor=none;fillColor=none;align=left;verticalAlign=middle;spacingLeft=4;spacingRight=4;overflow=hidden;rotatable=0;points=[[0,0.5],[1,0.5]];portConstraint=eastwest;whiteSpace=wrap;" vertex="1" parent="1lxfNGaXf8-d4kUKe-V4-1">
          <mxGeometry y="30" width="170" height="110" as="geometry" />
        </mxCell>
        <mxCell id="1lxfNGaXf8-d4kUKe-V4-3" value="&lt;b&gt;ClassB&lt;/b&gt;" style="swimlane;fontStyle=0;align=center;verticalAlign=top;childLayout=stackLayout;horizontal=1;startSize=30;horizontalStack=0;resizeParent=1;resizeParentMax=0;resizeLast=0;collapsible=0;marginBottom=0;html=1;whiteSpace=wrap;" vertex="1" parent="1">
          <mxGeometry y="200" width="170" height="140" as="geometry" />
        </mxCell>
        <mxCell id="1lxfNGaXf8-d4kUKe-V4-4" value="id {redefines name}&lt;br&gt;shape: Square&lt;br&gt;^+size: Integer[0..1]&lt;br&gt;height: Integer = 7&lt;br&gt;/width" style="text;html=1;strokeColor=none;fillColor=none;align=left;verticalAlign=middle;spacingLeft=4;spacingRight=4;overflow=hidden;rotatable=0;points=[[0,0.5],[1,0.5]];portConstraint=eastwest;whiteSpace=wrap;" vertex="1" parent="1lxfNGaXf8-d4kUKe-V4-3">
          <mxGeometry y="30" width="170" height="110" as="geometry" />
        </mxCell>
      </root>
    </mxGraphModel>
  </diagram>
</mxfile>
